<svg width="440" height="280" viewBox="0 0 440 280" fill="none" xmlns="http://www.w3.org/2000/svg">
<rect width="440" height="280" fill="#282C34"/>
<rect opacity="0.5" y="169" width="440" height="10" fill="#ABB2BF"/>
<path d="M65 140C65 137.239 67.2386 135 70 135H72C74.7614 135 77 137.239 77 140V169H65V140Z" fill="#56B6C2"/>
<path d="M87 122C87 119.239 89.2386 117 92 117H94C96.7614 117 99 119.239 99 122V169H87V122Z" fill="#61AEEE"/>
<path d="M109 106C109 103.239 111.239 101 114 101H116C118.761 101 121 103.239 121 106V169H109V106Z" fill="#C678DD"/>
<path d="M150.707 131L156.93 113.879H160.914L167.195 131H163.281L159.145 119.059C159.051 118.785 158.977 118.527 158.922 118.285C158.867 118.043 158.816 117.809 158.77 117.582H158.676C158.637 117.809 158.586 118.043 158.523 118.285C158.469 118.527 158.395 118.785 158.301 119.059L154.211 131H150.707ZM154.246 127.32L155.02 124.648H162.625L163.41 127.32H154.246ZM168.309 131V119.012H171.766L171.824 120.418H171.883C172.188 119.926 172.652 119.523 173.277 119.211C173.902 118.898 174.609 118.742 175.398 118.742C176.633 118.742 177.637 119.09 178.41 119.785C179.184 120.48 179.57 121.688 179.57 123.406V131H175.973V123.488C175.973 122.754 175.812 122.238 175.492 121.941C175.18 121.645 174.734 121.496 174.156 121.496C173.68 121.496 173.238 121.633 172.832 121.906C172.426 122.18 172.121 122.562 171.918 123.055V131H168.309ZM181.668 127.484C181.668 126.172 182.176 125.18 183.191 124.508C184.207 123.828 185.504 123.484 187.082 123.477H189.555V122.785C189.555 122.246 189.418 121.816 189.145 121.496C188.871 121.168 188.395 121.004 187.715 121.004C187.043 121.004 186.559 121.141 186.262 121.414C185.965 121.68 185.816 122.02 185.816 122.434V122.633L182.336 122.621V122.422C182.336 121.328 182.848 120.43 183.871 119.727C184.895 119.023 186.234 118.672 187.891 118.672C189.562 118.672 190.855 119.008 191.77 119.68C192.691 120.352 193.152 121.402 193.152 122.832V128.293C193.152 128.785 193.195 129.254 193.281 129.699C193.375 130.137 193.496 130.508 193.645 130.812V131H190.105C190.004 130.82 189.918 130.59 189.848 130.309C189.777 130.02 189.727 129.734 189.695 129.453C189.453 129.906 188.996 130.312 188.324 130.672C187.652 131.031 186.816 131.211 185.816 131.211C184.613 131.211 183.621 130.902 182.84 130.285C182.059 129.66 181.668 128.727 181.668 127.484ZM185.266 127.18C185.266 127.703 185.414 128.121 185.711 128.434C186.016 128.738 186.484 128.891 187.117 128.891C187.805 128.891 188.383 128.668 188.852 128.223C189.32 127.777 189.555 127.254 189.555 126.652V125.551H187.75C186.906 125.551 186.281 125.688 185.875 125.961C185.469 126.234 185.266 126.641 185.266 127.18ZM196.012 131V113.258H199.633V131H196.012ZM202 135.863L202.023 133.285C202.234 133.348 202.461 133.395 202.703 133.426C202.953 133.465 203.191 133.484 203.418 133.484C203.957 133.484 204.422 133.312 204.812 132.969C205.203 132.625 205.543 131.957 205.832 130.965H205.727L201.051 119.012H204.66L207.051 125.867C207.145 126.148 207.219 126.402 207.273 126.629C207.328 126.855 207.379 127.09 207.426 127.332H207.496C207.551 127.09 207.605 126.855 207.66 126.629C207.715 126.402 207.789 126.148 207.883 125.867L210.238 119.012H213.473L208.574 132.195C208.066 133.547 207.43 134.535 206.664 135.16C205.898 135.793 204.945 136.109 203.805 136.109C203.398 136.109 203.055 136.09 202.773 136.051C202.492 136.012 202.234 135.949 202 135.863ZM213.449 121.625V119.012H221.137V121.625H213.449ZM215.254 127.391V120.137L215.289 119.844V115.941H218.828V127.098C218.828 127.707 218.93 128.121 219.133 128.34C219.336 128.551 219.633 128.656 220.023 128.656C220.211 128.656 220.395 128.637 220.574 128.598C220.754 128.559 220.93 128.504 221.102 128.434V130.977C220.906 131.062 220.629 131.141 220.27 131.211C219.91 131.281 219.5 131.316 219.039 131.316C217.883 131.316 216.961 131.004 216.273 130.379C215.594 129.746 215.254 128.75 215.254 127.391ZM223.035 131V119.012H226.656V131H223.035ZM222.754 115.496C222.754 114.957 222.934 114.504 223.293 114.137C223.66 113.77 224.18 113.586 224.852 113.586C225.523 113.586 226.039 113.77 226.398 114.137C226.758 114.504 226.938 114.957 226.938 115.496C226.938 116.035 226.754 116.492 226.387 116.867C226.027 117.234 225.512 117.418 224.84 117.418C224.168 117.418 223.652 117.234 223.293 116.867C222.934 116.492 222.754 116.035 222.754 115.496ZM228.848 125.176V124.801C228.848 122.902 229.41 121.402 230.535 120.301C231.668 119.199 233.172 118.648 235.047 118.648C236.844 118.648 238.215 119.082 239.16 119.949C240.113 120.809 240.621 121.879 240.684 123.16L240.695 123.383H237.191V123.23C237.191 122.668 237.012 122.203 236.652 121.836C236.301 121.469 235.77 121.285 235.059 121.285C234.223 121.285 233.59 121.586 233.16 122.188C232.738 122.781 232.527 123.594 232.527 124.625V125.352C232.527 126.383 232.734 127.203 233.148 127.812C233.562 128.414 234.195 128.715 235.047 128.715C235.82 128.715 236.371 128.523 236.699 128.141C237.027 127.75 237.191 127.289 237.191 126.758V126.617H240.695V126.793C240.688 128.059 240.195 129.133 239.219 130.016C238.242 130.898 236.852 131.34 235.047 131.34C233.18 131.34 231.68 130.789 230.547 129.688C229.414 128.578 228.848 127.074 228.848 125.176ZM241.961 127.191L245.406 127.215V127.414C245.406 127.977 245.594 128.383 245.969 128.633C246.344 128.875 246.852 128.996 247.492 128.996C248.141 128.996 248.625 128.883 248.945 128.656C249.273 128.422 249.438 128.105 249.438 127.707C249.438 127.301 249.258 127 248.898 126.805C248.539 126.609 247.727 126.383 246.461 126.125C245.016 125.836 243.961 125.387 243.297 124.777C242.633 124.168 242.301 123.371 242.301 122.387C242.301 121.223 242.77 120.309 243.707 119.645C244.645 118.98 245.922 118.648 247.539 118.648C249.133 118.648 250.402 118.992 251.348 119.68C252.301 120.367 252.777 121.312 252.777 122.516V122.68H249.344V122.469C249.344 122.008 249.191 121.652 248.887 121.402C248.582 121.152 248.121 121.027 247.504 121.027C246.902 121.027 246.465 121.129 246.191 121.332C245.926 121.527 245.793 121.797 245.793 122.141C245.793 122.484 245.973 122.758 246.332 122.961C246.691 123.156 247.512 123.383 248.793 123.641C250.246 123.922 251.312 124.359 251.992 124.953C252.672 125.539 253.012 126.348 253.012 127.379C253.012 128.637 252.543 129.613 251.605 130.309C250.676 130.996 249.316 131.34 247.527 131.34C245.762 131.34 244.395 130.992 243.426 130.297C242.457 129.602 241.969 128.617 241.961 127.344V127.191ZM261.238 131V113.938H264.965V128.141H272.184V131H261.238ZM273.402 127.484C273.402 126.172 273.91 125.18 274.926 124.508C275.941 123.828 277.238 123.484 278.816 123.477H281.289V122.785C281.289 122.246 281.152 121.816 280.879 121.496C280.605 121.168 280.129 121.004 279.449 121.004C278.777 121.004 278.293 121.141 277.996 121.414C277.699 121.68 277.551 122.02 277.551 122.434V122.633L274.07 122.621V122.422C274.07 121.328 274.582 120.43 275.605 119.727C276.629 119.023 277.969 118.672 279.625 118.672C281.297 118.672 282.59 119.008 283.504 119.68C284.426 120.352 284.887 121.402 284.887 122.832V128.293C284.887 128.785 284.93 129.254 285.016 129.699C285.109 130.137 285.23 130.508 285.379 130.812V131H281.84C281.738 130.82 281.652 130.59 281.582 130.309C281.512 130.02 281.461 129.734 281.43 129.453C281.188 129.906 280.73 130.312 280.059 130.672C279.387 131.031 278.551 131.211 277.551 131.211C276.348 131.211 275.355 130.902 274.574 130.285C273.793 129.66 273.402 128.727 273.402 127.484ZM277 127.18C277 127.703 277.148 128.121 277.445 128.434C277.75 128.738 278.219 128.891 278.852 128.891C279.539 128.891 280.117 128.668 280.586 128.223C281.055 127.777 281.289 127.254 281.289 126.652V125.551H279.484C278.641 125.551 278.016 125.688 277.609 125.961C277.203 126.234 277 126.641 277 127.18ZM287.055 135.863L287.078 133.285C287.289 133.348 287.516 133.395 287.758 133.426C288.008 133.465 288.246 133.484 288.473 133.484C289.012 133.484 289.477 133.312 289.867 132.969C290.258 132.625 290.598 131.957 290.887 130.965H290.781L286.105 119.012H289.715L292.105 125.867C292.199 126.148 292.273 126.402 292.328 126.629C292.383 126.855 292.434 127.09 292.48 127.332H292.551C292.605 127.09 292.66 126.855 292.715 126.629C292.77 126.402 292.844 126.148 292.938 125.867L295.293 119.012H298.527L293.629 132.195C293.121 133.547 292.484 134.535 291.719 135.16C290.953 135.793 290 136.109 288.859 136.109C288.453 136.109 288.109 136.09 287.828 136.051C287.547 136.012 287.289 135.949 287.055 135.863ZM299.043 125.176V124.801C299.043 122.949 299.609 121.465 300.742 120.348C301.883 119.223 303.352 118.66 305.148 118.66C306.953 118.66 308.359 119.188 309.367 120.242C310.383 121.297 310.891 122.754 310.891 124.613V125.82H301.352V123.699H307.352V123.477C307.352 122.844 307.16 122.312 306.777 121.883C306.402 121.445 305.855 121.227 305.137 121.227C304.316 121.227 303.691 121.531 303.262 122.141C302.84 122.742 302.629 123.547 302.629 124.555V125.328C302.629 126.375 302.859 127.203 303.32 127.812C303.781 128.414 304.457 128.715 305.348 128.715C305.973 128.715 306.508 128.566 306.953 128.27C307.406 127.973 307.77 127.617 308.043 127.203L310.703 128.645C310.32 129.441 309.672 130.09 308.758 130.59C307.844 131.09 306.727 131.34 305.406 131.34C303.414 131.34 301.855 130.781 300.73 129.664C299.605 128.539 299.043 127.043 299.043 125.176ZM312.918 131V119.012H316.41L316.469 120.383H316.516C316.773 119.922 317.125 119.527 317.57 119.199C318.023 118.863 318.531 118.695 319.094 118.695C319.273 118.695 319.449 118.715 319.621 118.754C319.801 118.793 319.93 118.828 320.008 118.859V121.848C319.867 121.809 319.711 121.781 319.539 121.766C319.375 121.742 319.191 121.73 318.988 121.73C318.465 121.73 317.98 121.891 317.535 122.211C317.098 122.523 316.77 122.93 316.551 123.43V131H312.918ZM319.996 113.938H323.969L327.895 125.363C327.973 125.566 328.031 125.758 328.07 125.938C328.117 126.117 328.164 126.32 328.211 126.547H328.305C328.352 126.32 328.398 126.117 328.445 125.938C328.5 125.75 328.559 125.559 328.621 125.363L332.605 113.938H336.18L330.098 131.059H326.09L319.996 113.938ZM337.293 131V119.012H340.914V131H337.293ZM337.012 115.496C337.012 114.957 337.191 114.504 337.551 114.137C337.918 113.77 338.438 113.586 339.109 113.586C339.781 113.586 340.297 113.77 340.656 114.137C341.016 114.504 341.195 114.957 341.195 115.496C341.195 116.035 341.012 116.492 340.645 116.867C340.285 117.234 339.77 117.418 339.098 117.418C338.426 117.418 337.91 117.234 337.551 116.867C337.191 116.492 337.012 116.035 337.012 115.496ZM343.105 125.176V124.801C343.105 122.949 343.672 121.465 344.805 120.348C345.945 119.223 347.414 118.66 349.211 118.66C351.016 118.66 352.422 119.188 353.43 120.242C354.445 121.297 354.953 122.754 354.953 124.613V125.82H345.414V123.699H351.414V123.477C351.414 122.844 351.223 122.312 350.84 121.883C350.465 121.445 349.918 121.227 349.199 121.227C348.379 121.227 347.754 121.531 347.324 122.141C346.902 122.742 346.691 123.547 346.691 124.555V125.328C346.691 126.375 346.922 127.203 347.383 127.812C347.844 128.414 348.52 128.715 349.41 128.715C350.035 128.715 350.57 128.566 351.016 128.27C351.469 127.973 351.832 127.617 352.105 127.203L354.766 128.645C354.383 129.441 353.734 130.09 352.82 130.59C351.906 131.09 350.789 131.34 349.469 131.34C347.477 131.34 345.918 130.781 344.793 129.664C343.668 128.539 343.105 127.043 343.105 125.176ZM355.715 119.012H359.289L361.035 125.598C361.113 125.895 361.176 126.168 361.223 126.418C361.277 126.66 361.328 126.922 361.375 127.203H361.445C361.492 126.922 361.535 126.66 361.574 126.418C361.621 126.168 361.688 125.895 361.773 125.598L363.719 119.012H367.141L369.145 125.609C369.238 125.914 369.312 126.188 369.367 126.43C369.422 126.672 369.473 126.93 369.52 127.203H369.59C369.637 126.93 369.684 126.672 369.73 126.43C369.777 126.18 369.832 125.906 369.895 125.609L371.652 119.012H374.793L371.207 131H367.727L365.629 124.367C365.551 124.094 365.477 123.82 365.406 123.547C365.344 123.273 365.289 123 365.242 122.727H365.195C365.141 123 365.078 123.273 365.008 123.547C364.945 123.82 364.875 124.094 364.797 124.367L362.816 131H359.312L355.715 119.012Z" fill="white"/>
<path d="M151 145.625H152.562L155.57 154.102C155.628 154.273 155.677 154.427 155.719 154.562C155.766 154.698 155.81 154.841 155.852 154.992H155.922C155.969 154.841 156.013 154.698 156.055 154.562C156.102 154.427 156.156 154.273 156.219 154.102L159.258 145.625H160.758L156.539 157.078H155.211L151 145.625ZM161.969 157V148.828H163.391V157H161.969ZM161.789 146.336C161.789 146.091 161.865 145.888 162.016 145.727C162.172 145.56 162.393 145.477 162.68 145.477C162.966 145.477 163.185 145.56 163.336 145.727C163.492 145.888 163.57 146.091 163.57 146.336C163.57 146.576 163.492 146.779 163.336 146.945C163.185 147.107 162.966 147.188 162.68 147.188C162.393 147.188 162.172 147.107 162.016 146.945C161.865 146.779 161.789 146.576 161.789 146.336ZM165.234 154.586H166.664V154.633C166.664 155.107 166.836 155.464 167.18 155.703C167.529 155.943 167.99 156.062 168.562 156.062C169.135 156.062 169.586 155.948 169.914 155.719C170.247 155.49 170.414 155.193 170.414 154.828C170.414 154.464 170.279 154.185 170.008 153.992C169.742 153.794 169.172 153.591 168.297 153.383C167.417 153.174 166.719 152.883 166.203 152.508C165.688 152.133 165.43 151.609 165.43 150.938C165.43 150.266 165.706 149.708 166.258 149.266C166.815 148.823 167.56 148.602 168.492 148.602C169.419 148.602 170.167 148.823 170.734 149.266C171.302 149.703 171.586 150.299 171.586 151.055V151.102H170.164V151.031C170.164 150.635 170.026 150.326 169.75 150.102C169.479 149.878 169.06 149.766 168.492 149.766C167.919 149.766 167.5 149.87 167.234 150.078C166.974 150.286 166.844 150.547 166.844 150.859C166.844 151.172 166.992 151.422 167.289 151.609C167.591 151.792 168.182 151.987 169.062 152.195C169.943 152.404 170.62 152.701 171.094 153.086C171.573 153.471 171.812 154.026 171.812 154.75C171.812 155.474 171.542 156.07 171 156.539C170.458 157.003 169.646 157.234 168.562 157.234C167.479 157.234 166.654 156.997 166.086 156.523C165.518 156.049 165.234 155.419 165.234 154.633V154.586ZM173.508 154.109V148.828H174.93V154.125C174.93 154.781 175.076 155.253 175.367 155.539C175.664 155.82 176.083 155.961 176.625 155.961C177.089 155.961 177.495 155.836 177.844 155.586C178.198 155.331 178.477 155.005 178.68 154.609V148.828H180.102V157H178.812L178.75 155.945H178.711C178.414 156.32 178.052 156.617 177.625 156.836C177.198 157.049 176.724 157.156 176.203 157.156C175.38 157.156 174.724 156.922 174.234 156.453C173.75 155.984 173.508 155.203 173.508 154.109ZM181.945 154.594C181.945 153.771 182.271 153.128 182.922 152.664C183.578 152.201 184.414 151.969 185.43 151.969H187.289V151.398C187.289 150.904 187.161 150.503 186.906 150.195C186.651 149.888 186.211 149.734 185.586 149.734C184.961 149.734 184.513 149.865 184.242 150.125C183.977 150.38 183.844 150.677 183.844 151.016V151.062H182.422V151.016C182.422 150.37 182.708 149.807 183.281 149.328C183.859 148.844 184.641 148.602 185.625 148.602C186.604 148.602 187.362 148.836 187.898 149.305C188.44 149.768 188.711 150.466 188.711 151.398V155.125C188.711 155.464 188.737 155.784 188.789 156.086C188.841 156.383 188.914 156.646 189.008 156.875V157H187.633C187.56 156.87 187.492 156.701 187.43 156.492C187.372 156.284 187.336 156.076 187.32 155.867C187.128 156.206 186.815 156.505 186.383 156.766C185.956 157.026 185.406 157.156 184.734 157.156C183.953 157.156 183.292 156.938 182.75 156.5C182.214 156.057 181.945 155.422 181.945 154.594ZM183.367 154.523C183.367 154.992 183.503 155.359 183.773 155.625C184.044 155.885 184.466 156.016 185.039 156.016C185.612 156.016 186.13 155.818 186.594 155.422C187.057 155.026 187.289 154.607 187.289 154.164V152.992H185.586C184.857 152.992 184.305 153.13 183.93 153.406C183.555 153.682 183.367 154.055 183.367 154.523ZM191.016 157V145.031H192.445V157H191.016ZM194.875 157V148.828H196.297V157H194.875ZM194.695 146.336C194.695 146.091 194.771 145.888 194.922 145.727C195.078 145.56 195.299 145.477 195.586 145.477C195.872 145.477 196.091 145.56 196.242 145.727C196.398 145.888 196.477 146.091 196.477 146.336C196.477 146.576 196.398 146.779 196.242 146.945C196.091 147.107 195.872 147.188 195.586 147.188C195.299 147.188 195.078 147.107 194.922 146.945C194.771 146.779 194.695 146.576 194.695 146.336ZM198.141 154.586H199.57V154.633C199.57 155.107 199.742 155.464 200.086 155.703C200.435 155.943 200.896 156.062 201.469 156.062C202.042 156.062 202.492 155.948 202.82 155.719C203.154 155.49 203.32 155.193 203.32 154.828C203.32 154.464 203.185 154.185 202.914 153.992C202.648 153.794 202.078 153.591 201.203 153.383C200.323 153.174 199.625 152.883 199.109 152.508C198.594 152.133 198.336 151.609 198.336 150.938C198.336 150.266 198.612 149.708 199.164 149.266C199.721 148.823 200.466 148.602 201.398 148.602C202.326 148.602 203.073 148.823 203.641 149.266C204.208 149.703 204.492 150.299 204.492 151.055V151.102H203.07V151.031C203.07 150.635 202.932 150.326 202.656 150.102C202.385 149.878 201.966 149.766 201.398 149.766C200.826 149.766 200.406 149.87 200.141 150.078C199.88 150.286 199.75 150.547 199.75 150.859C199.75 151.172 199.898 151.422 200.195 151.609C200.497 151.792 201.089 151.987 201.969 152.195C202.849 152.404 203.526 152.701 204 153.086C204.479 153.471 204.719 154.026 204.719 154.75C204.719 155.474 204.448 156.07 203.906 156.539C203.365 157.003 202.552 157.234 201.469 157.234C200.385 157.234 199.56 156.997 198.992 156.523C198.424 156.049 198.141 155.419 198.141 154.633V154.586ZM206 153.039V152.789C206 151.555 206.336 150.549 207.008 149.773C207.685 148.992 208.578 148.602 209.688 148.602C210.797 148.602 211.651 148.966 212.25 149.695C212.849 150.419 213.148 151.404 213.148 152.648V153.234H206.867V152.094H211.711V151.914C211.711 151.32 211.542 150.815 211.203 150.398C210.87 149.977 210.383 149.766 209.742 149.766C208.977 149.766 208.404 150.057 208.023 150.641C207.643 151.224 207.453 151.94 207.453 152.789V153.039C207.453 153.888 207.654 154.604 208.055 155.188C208.456 155.771 209.076 156.062 209.914 156.062C210.435 156.062 210.88 155.951 211.25 155.727C211.625 155.497 211.93 155.227 212.164 154.914L213.086 155.641C212.826 156.031 212.424 156.396 211.883 156.734C211.346 157.068 210.69 157.234 209.914 157.234C208.648 157.234 207.68 156.844 207.008 156.062C206.336 155.281 206 154.273 206 153.039ZM218.008 160.25V159.039C218.143 159.081 218.292 159.115 218.453 159.141C218.62 159.167 218.781 159.18 218.938 159.18C219.302 159.18 219.62 159.039 219.891 158.758C220.161 158.477 220.448 157.88 220.75 156.969L217.703 148.828H219.086L221.031 154.234C221.104 154.438 221.169 154.63 221.227 154.812C221.284 154.995 221.333 155.164 221.375 155.32H221.422C221.464 155.164 221.513 154.995 221.57 154.812C221.633 154.63 221.698 154.435 221.766 154.227L223.586 148.828H224.938L221.609 158.094C221.349 158.828 221.005 159.396 220.578 159.797C220.156 160.203 219.635 160.406 219.016 160.406C218.807 160.406 218.622 160.393 218.461 160.367C218.305 160.341 218.154 160.302 218.008 160.25ZM225.469 153.039V152.789C225.469 151.555 225.818 150.549 226.516 149.773C227.214 148.992 228.146 148.602 229.312 148.602C230.479 148.602 231.411 148.992 232.109 149.773C232.807 150.549 233.156 151.555 233.156 152.789V153.039C233.156 154.273 232.807 155.281 232.109 156.062C231.411 156.844 230.479 157.234 229.312 157.234C228.146 157.234 227.214 156.844 226.516 156.062C225.818 155.281 225.469 154.273 225.469 153.039ZM226.922 152.789V153.039C226.922 153.888 227.122 154.604 227.523 155.188C227.924 155.771 228.521 156.062 229.312 156.062C230.104 156.062 230.698 155.771 231.094 155.188C231.495 154.604 231.695 153.888 231.695 153.039V152.789C231.695 151.94 231.495 151.224 231.094 150.641C230.698 150.057 230.104 149.766 229.312 149.766C228.521 149.766 227.924 150.057 227.523 150.641C227.122 151.224 226.922 151.94 226.922 152.789ZM234.883 154.109V148.828H236.305V154.125C236.305 154.781 236.451 155.253 236.742 155.539C237.039 155.82 237.458 155.961 238 155.961C238.464 155.961 238.87 155.836 239.219 155.586C239.573 155.331 239.852 155.005 240.055 154.609V148.828H241.477V157H240.188L240.125 155.945H240.086C239.789 156.32 239.427 156.617 239 156.836C238.573 157.049 238.099 157.156 237.578 157.156C236.755 157.156 236.099 156.922 235.609 156.453C235.125 155.984 234.883 155.203 234.883 154.109ZM243.773 157V148.828H245.062L245.117 149.883H245.164C245.372 149.539 245.646 149.24 245.984 148.984C246.323 148.729 246.727 148.602 247.195 148.602C247.31 148.602 247.43 148.615 247.555 148.641C247.68 148.661 247.768 148.682 247.82 148.703V150.023C247.716 150.003 247.607 149.987 247.492 149.977C247.378 149.966 247.253 149.961 247.117 149.961C246.654 149.961 246.255 150.083 245.922 150.328C245.594 150.573 245.352 150.88 245.195 151.25V157H243.773ZM252.562 153.039V152.789C252.562 151.596 252.872 150.612 253.492 149.836C254.112 149.06 254.94 148.672 255.977 148.672C256.544 148.672 257.029 148.776 257.43 148.984C257.836 149.188 258.156 149.456 258.391 149.789V145.031H259.82V157H258.531L258.469 155.93H258.422C258.214 156.268 257.896 156.557 257.469 156.797C257.042 157.036 256.544 157.156 255.977 157.156C254.94 157.156 254.112 156.768 253.492 155.992C252.872 155.216 252.562 154.232 252.562 153.039ZM254.016 153.039C254.016 153.872 254.198 154.573 254.562 155.141C254.927 155.703 255.5 155.984 256.281 155.984C256.802 155.984 257.245 155.844 257.609 155.562C257.974 155.276 258.234 154.951 258.391 154.586V151.242C258.234 150.878 257.974 150.555 257.609 150.273C257.245 149.987 256.802 149.844 256.281 149.844C255.5 149.844 254.927 150.128 254.562 150.695C254.198 151.258 254.016 151.956 254.016 152.789V153.039ZM261.664 154.594C261.664 153.771 261.99 153.128 262.641 152.664C263.297 152.201 264.133 151.969 265.148 151.969H267.008V151.398C267.008 150.904 266.88 150.503 266.625 150.195C266.37 149.888 265.93 149.734 265.305 149.734C264.68 149.734 264.232 149.865 263.961 150.125C263.695 150.38 263.562 150.677 263.562 151.016V151.062H262.141V151.016C262.141 150.37 262.427 149.807 263 149.328C263.578 148.844 264.359 148.602 265.344 148.602C266.323 148.602 267.081 148.836 267.617 149.305C268.159 149.768 268.43 150.466 268.43 151.398V155.125C268.43 155.464 268.456 155.784 268.508 156.086C268.56 156.383 268.633 156.646 268.727 156.875V157H267.352C267.279 156.87 267.211 156.701 267.148 156.492C267.091 156.284 267.055 156.076 267.039 155.867C266.846 156.206 266.534 156.505 266.102 156.766C265.674 157.026 265.125 157.156 264.453 157.156C263.672 157.156 263.01 156.938 262.469 156.5C261.932 156.057 261.664 155.422 261.664 154.594ZM263.086 154.523C263.086 154.992 263.221 155.359 263.492 155.625C263.763 155.885 264.185 156.016 264.758 156.016C265.331 156.016 265.849 155.818 266.312 155.422C266.776 155.026 267.008 154.607 267.008 154.164V152.992H265.305C264.576 152.992 264.023 153.13 263.648 153.406C263.273 153.682 263.086 154.055 263.086 154.523ZM269.531 149.922V148.828H274.18V149.922H269.531ZM270.992 154.969V149.484V149.258V146.766H272.414V154.969C272.414 155.344 272.487 155.609 272.633 155.766C272.784 155.922 273.016 156 273.328 156C273.474 156 273.615 155.987 273.75 155.961C273.891 155.93 274.034 155.888 274.18 155.836V157C274.044 157.062 273.87 157.117 273.656 157.164C273.443 157.211 273.206 157.234 272.945 157.234C272.352 157.234 271.878 157.055 271.523 156.695C271.169 156.331 270.992 155.755 270.992 154.969ZM275.258 154.594C275.258 153.771 275.583 153.128 276.234 152.664C276.891 152.201 277.727 151.969 278.742 151.969H280.602V151.398C280.602 150.904 280.474 150.503 280.219 150.195C279.964 149.888 279.523 149.734 278.898 149.734C278.273 149.734 277.826 149.865 277.555 150.125C277.289 150.38 277.156 150.677 277.156 151.016V151.062H275.734V151.016C275.734 150.37 276.021 149.807 276.594 149.328C277.172 148.844 277.953 148.602 278.938 148.602C279.917 148.602 280.674 148.836 281.211 149.305C281.753 149.768 282.023 150.466 282.023 151.398V155.125C282.023 155.464 282.049 155.784 282.102 156.086C282.154 156.383 282.227 156.646 282.32 156.875V157H280.945C280.872 156.87 280.805 156.701 280.742 156.492C280.685 156.284 280.648 156.076 280.633 155.867C280.44 156.206 280.128 156.505 279.695 156.766C279.268 157.026 278.719 157.156 278.047 157.156C277.266 157.156 276.604 156.938 276.062 156.5C275.526 156.057 275.258 155.422 275.258 154.594ZM276.68 154.523C276.68 154.992 276.815 155.359 277.086 155.625C277.357 155.885 277.779 156.016 278.352 156.016C278.924 156.016 279.443 155.818 279.906 155.422C280.37 155.026 280.602 154.607 280.602 154.164V152.992H278.898C278.169 152.992 277.617 153.13 277.242 153.406C276.867 153.682 276.68 154.055 276.68 154.523ZM288.188 157V145.031H289.617V157H288.188ZM291.523 154.594C291.523 153.771 291.849 153.128 292.5 152.664C293.156 152.201 293.992 151.969 295.008 151.969H296.867V151.398C296.867 150.904 296.74 150.503 296.484 150.195C296.229 149.888 295.789 149.734 295.164 149.734C294.539 149.734 294.091 149.865 293.82 150.125C293.555 150.38 293.422 150.677 293.422 151.016V151.062H292V151.016C292 150.37 292.286 149.807 292.859 149.328C293.438 148.844 294.219 148.602 295.203 148.602C296.182 148.602 296.94 148.836 297.477 149.305C298.018 149.768 298.289 150.466 298.289 151.398V155.125C298.289 155.464 298.315 155.784 298.367 156.086C298.419 156.383 298.492 156.646 298.586 156.875V157H297.211C297.138 156.87 297.07 156.701 297.008 156.492C296.951 156.284 296.914 156.076 296.898 155.867C296.706 156.206 296.393 156.505 295.961 156.766C295.534 157.026 294.984 157.156 294.312 157.156C293.531 157.156 292.87 156.938 292.328 156.5C291.792 156.057 291.523 155.422 291.523 154.594ZM292.945 154.523C292.945 154.992 293.081 155.359 293.352 155.625C293.622 155.885 294.044 156.016 294.617 156.016C295.19 156.016 295.708 155.818 296.172 155.422C296.635 155.026 296.867 154.607 296.867 154.164V152.992H295.164C294.435 152.992 293.883 153.13 293.508 153.406C293.133 153.682 292.945 154.055 292.945 154.523ZM299.648 160.25V159.039C299.784 159.081 299.932 159.115 300.094 159.141C300.26 159.167 300.422 159.18 300.578 159.18C300.943 159.18 301.26 159.039 301.531 158.758C301.802 158.477 302.089 157.88 302.391 156.969L299.344 148.828H300.727L302.672 154.234C302.745 154.438 302.81 154.63 302.867 154.812C302.924 154.995 302.974 155.164 303.016 155.32H303.062C303.104 155.164 303.154 154.995 303.211 154.812C303.273 154.63 303.339 154.435 303.406 154.227L305.227 148.828H306.578L303.25 158.094C302.99 158.828 302.646 159.396 302.219 159.797C301.797 160.203 301.276 160.406 300.656 160.406C300.448 160.406 300.263 160.393 300.102 160.367C299.945 160.341 299.794 160.302 299.648 160.25ZM307.125 153.039V152.789C307.125 151.555 307.461 150.549 308.133 149.773C308.81 148.992 309.703 148.602 310.812 148.602C311.922 148.602 312.776 148.966 313.375 149.695C313.974 150.419 314.273 151.404 314.273 152.648V153.234H307.992V152.094H312.836V151.914C312.836 151.32 312.667 150.815 312.328 150.398C311.995 149.977 311.508 149.766 310.867 149.766C310.102 149.766 309.529 150.057 309.148 150.641C308.768 151.224 308.578 151.94 308.578 152.789V153.039C308.578 153.888 308.779 154.604 309.18 155.188C309.581 155.771 310.201 156.062 311.039 156.062C311.56 156.062 312.005 155.951 312.375 155.727C312.75 155.497 313.055 155.227 313.289 154.914L314.211 155.641C313.951 156.031 313.549 156.396 313.008 156.734C312.471 157.068 311.815 157.234 311.039 157.234C309.773 157.234 308.805 156.844 308.133 156.062C307.461 155.281 307.125 154.273 307.125 153.039ZM316.039 157V148.828H317.328L317.383 149.883H317.43C317.638 149.539 317.911 149.24 318.25 148.984C318.589 148.729 318.992 148.602 319.461 148.602C319.576 148.602 319.695 148.615 319.82 148.641C319.945 148.661 320.034 148.682 320.086 148.703V150.023C319.982 150.003 319.872 149.987 319.758 149.977C319.643 149.966 319.518 149.961 319.383 149.961C318.919 149.961 318.521 150.083 318.188 150.328C317.859 150.573 317.617 150.88 317.461 151.25V157H316.039Z" fill="white"/>
</svg>
